<?xml version="1.0" encoding="UTF-8"?>
<svg version="1.1" xmlns="http://www.w3.org/2000/svg" width="48" height="48">
<path d="M0 0 C0.33 1.65 0.66 3.3 1 5 C4.96 5.33 8.92 5.66 13 6 C13.21688524 10.2351496 13.41377195 14.47060971 13.59204102 18.70751953 C13.65553381 20.14917937 13.7245198 21.59060805 13.79907227 23.03173828 C13.90519707 25.10152815 13.99163842 27.17134143 14.07421875 29.2421875 C14.13182373 30.4885498 14.18942871 31.73491211 14.2487793 33.01904297 C14.16668213 34.00275879 14.08458496 34.98647461 14 36 C10.24542523 38.50304984 7.28434902 38.28870257 2.9375 38.265625 C1.75595337 38.26849518 1.75595337 38.26849518 0.55053711 38.27142334 C-1.11377278 38.27278347 -2.77809334 38.26909899 -4.44238281 38.26074219 C-6.99047669 38.25004 -9.53786556 38.26064301 -12.0859375 38.2734375 C-13.70312656 38.27211587 -15.32031517 38.26955342 -16.9375 38.265625 C-17.70006104 38.26967346 -18.46262207 38.27372192 -19.24829102 38.27789307 C-23.03498674 38.24430937 -24.77148266 38.1523449 -28 36 C-29.23930763 30.49434025 -29.15118089 24.92830133 -29.125 19.3125 C-29.12886719 18.47138672 -29.13273437 17.63027344 -29.13671875 16.76367188 C-29.13542969 15.95091797 -29.13414063 15.13816406 -29.1328125 14.30078125 C-29.13168457 13.57028564 -29.13055664 12.83979004 -29.12939453 12.0871582 C-29 10 -29 10 -28 6 C-24.04 6 -20.08 6 -16 6 C-16.33 4.35 -16.66 2.7 -17 1 C-11.6223473 -1.68882635 -5.73985738 -1.91328579 0 0 Z M-11 4 C-11 4.66 -11 5.32 -11 6 C-9.02 5.67 -7.04 5.34 -5 5 C-5 4.67 -5 4.34 -5 4 C-6.98 4 -8.96 4 -11 4 Z " fill="#AA5926" transform="translate(32,5)"/>
<path d="M0 0 C0.83265381 0.00523682 1.66530762 0.01047363 2.52319336 0.01586914 C3.42231445 0.0190918 4.32143555 0.02231445 5.24780273 0.02563477 C6.66609375 0.03820313 6.66609375 0.03820313 8.11303711 0.05102539 C9.06243164 0.05553711 10.01182617 0.06004883 10.98999023 0.06469727 C13.34356776 0.07652429 15.69702188 0.09300514 18.05053711 0.11352539 C17.05053711 3.11352539 17.05053711 3.11352539 13.98803711 4.80102539 C13.01866211 5.23415039 12.04928711 5.66727539 11.05053711 6.11352539 C11.05053711 6.44352539 11.05053711 6.77352539 11.05053711 7.11352539 C11.60741211 6.61852539 12.16428711 6.12352539 12.73803711 5.61352539 C15.47189941 3.8402093 16.85218838 3.60852296 20.05053711 4.11352539 C22.40008749 7.63785096 22.82915506 9.90726653 23.05053711 14.11352539 C21.61303711 16.36352539 21.61303711 16.36352539 20.05053711 18.11352539 C20.05053711 19.10352539 20.05053711 20.09352539 20.05053711 21.11352539 C22.03053711 22.10352539 24.01053711 23.09352539 26.05053711 24.11352539 C22.5884284 26.24276416 19.88279231 26.32665644 15.86303711 26.23852539 C14.79698242 26.22047852 13.73092773 26.20243164 12.63256836 26.18383789 C11.78049805 26.16063477 10.92842773 26.13743164 10.05053711 26.11352539 C9.72053711 26.11352539 9.39053711 26.11352539 9.05053711 26.11352539 C9.05053711 27.10352539 9.05053711 28.09352539 9.05053711 29.11352539 C7.23811659 29.14039818 5.42558478 29.15986255 3.61303711 29.17602539 C2.60370117 29.18762695 1.59436523 29.19922852 0.55444336 29.21118164 C-1.94946289 29.11352539 -1.94946289 29.11352539 -2.94946289 28.11352539 C-3.04929347 26.12595511 -3.08027042 24.1348502 -3.08227539 22.14477539 C-3.08356445 20.9343457 -3.08485352 19.72391602 -3.08618164 18.47680664 C-3.08231445 17.20192383 -3.07844727 15.92704102 -3.07446289 14.61352539 C-3.07833008 13.33864258 -3.08219727 12.06375977 -3.08618164 10.75024414 C-3.08489258 9.53981445 -3.08360352 8.32938477 -3.08227539 7.08227539 C-3.08114746 5.96272461 -3.08001953 4.84317383 -3.07885742 3.68969727 C-2.90202164 0.16899688 -2.90202164 0.16899688 0 0 Z " fill="#BD6127" transform="translate(7.949462890625,11.886474609375)"/>
<path d="M0 0 C0.33 1.65 0.66 3.3 1 5 C4.96 5.33 8.92 5.66 13 6 C13.21688524 10.2351496 13.41377195 14.47060971 13.59204102 18.70751953 C13.65553381 20.14917937 13.7245198 21.59060805 13.79907227 23.03173828 C13.90519707 25.10152815 13.99163842 27.17134143 14.07421875 29.2421875 C14.13182373 30.4885498 14.18942871 31.73491211 14.2487793 33.01904297 C14.16668213 34.00275879 14.08458496 34.98647461 14 36 C10.24542523 38.50304984 7.28434902 38.28870257 2.9375 38.265625 C1.75595337 38.26849518 1.75595337 38.26849518 0.55053711 38.27142334 C-1.11377278 38.27278347 -2.77809334 38.26909899 -4.44238281 38.26074219 C-6.99047669 38.25004 -9.53786556 38.26064301 -12.0859375 38.2734375 C-13.70312656 38.27211587 -15.32031517 38.26955342 -16.9375 38.265625 C-17.70006104 38.26967346 -18.46262207 38.27372192 -19.24829102 38.27789307 C-23.03498674 38.24430937 -24.77148266 38.1523449 -28 36 C-29.23930763 30.49434025 -29.15118089 24.92830133 -29.125 19.3125 C-29.12886719 18.47138672 -29.13273437 17.63027344 -29.13671875 16.76367188 C-29.13542969 15.95091797 -29.13414063 15.13816406 -29.1328125 14.30078125 C-29.13168457 13.57028564 -29.13055664 12.83979004 -29.12939453 12.0871582 C-29 10 -29 10 -28 6 C-24.04 6 -20.08 6 -16 6 C-16.33 4.35 -16.66 2.7 -17 1 C-11.6223473 -1.68882635 -5.73985738 -1.91328579 0 0 Z M-11 4 C-11 4.66 -11 5.32 -11 6 C-9.02 5.67 -7.04 5.34 -5 5 C-5 4.67 -5 4.34 -5 4 C-6.98 4 -8.96 4 -11 4 Z M-27 8 C-27.09983058 9.98757028 -27.13080753 11.9786752 -27.1328125 13.96875 C-27.13410156 15.17917969 -27.13539062 16.38960937 -27.13671875 17.63671875 C-27.13285156 18.91160156 -27.12898438 20.18648437 -27.125 21.5 C-27.12886719 22.77488281 -27.13273437 24.04976562 -27.13671875 25.36328125 C-27.13542969 26.57371094 -27.13414063 27.78414062 -27.1328125 29.03125 C-27.13168457 30.15080078 -27.13055664 31.27035156 -27.12939453 32.42382812 C-27.29216368 34.93141802 -27.29216368 34.93141802 -26 36 C-23.1883662 36.08861992 -20.40141745 36.11522355 -17.58984375 36.09765625 C-16.32679161 36.09553383 -16.32679161 36.09553383 -15.03822327 36.09336853 C-12.33794665 36.08775263 -9.63775172 36.07519748 -6.9375 36.0625 C-5.11132932 36.05748705 -3.28515734 36.05292379 -1.45898438 36.04882812 C3.02737542 36.03777804 7.51367384 36.02050279 12 36 C12.02465881 32.03069011 12.04284023 28.06140966 12.05493164 24.09204102 C12.05997057 22.74079614 12.06680177 21.38955674 12.07543945 20.03833008 C12.08752419 18.09979566 12.09269828 16.161222 12.09765625 14.22265625 C12.10289307 13.05484619 12.10812988 11.88703613 12.11352539 10.68383789 C12.30661495 8.08108449 12.30661495 8.08108449 11 7 C8.27275721 6.89900512 5.57137477 6.86029471 2.84375 6.8671875 C2.02628296 6.86623077 1.20881592 6.86527405 0.36657715 6.86428833 C-1.36515378 6.86360655 -3.09688724 6.86546071 -4.82861328 6.86962891 C-7.48866482 6.87497721 -10.1485475 6.86968388 -12.80859375 6.86328125 C-14.48697954 6.86394203 -16.16536523 6.8652232 -17.84375 6.8671875 C-18.64478149 6.86516327 -19.44581299 6.86313904 -20.27111816 6.86105347 C-23.93582301 6.52786332 -23.93582301 6.52786332 -27 8 Z " fill="#090401" transform="translate(32,5)"/>
<path d="M0 0 C2.34955038 3.52432557 2.77861795 5.79374114 3 10 C1.5625 12.25 1.5625 12.25 0 14 C0 14.99 0 15.98 0 17 C1.98 17.99 3.96 18.98 6 20 C2.57825111 22.08603004 -0.0921798 22.24161837 -4.0625 22.1875 C-5.10535156 22.18105469 -6.14820313 22.17460938 -7.22265625 22.16796875 C-10 22 -10 22 -13 21 C-13 20.34 -13 19.68 -13 19 C-11.02 18.34 -9.04 17.68 -7 17 C-7.57584432 14.61435923 -8.22227595 12.33317216 -9 10 C-9.3125 6.5 -9.3125 6.5 -9 3 C-6.35975692 -0.0313902 -3.93579364 -0.6214411 0 0 Z " fill="#CEDDDD" transform="translate(28,16)"/>
<path d="M0 0 C0.33 1.65 0.66 3.3 1 5 C4.96 5.33 8.92 5.66 13 6 C13 6.33 13 6.66 13 7 C3.1 7 -6.8 7 -17 7 C-17 5.02 -17 3.04 -17 1 C-11.6223473 -1.68882635 -5.73985738 -1.91328579 0 0 Z M-11 4 C-11 4.66 -11 5.32 -11 6 C-9.02 5.67 -7.04 5.34 -5 5 C-5 4.67 -5 4.34 -5 4 C-6.98 4 -8.96 4 -11 4 Z " fill="#030201" transform="translate(32,5)"/>
<path d="M0 0 C4.62 0 9.24 0 14 0 C14 1.65 14 3.3 14 5 C13.34 5 12.68 5 12 5 C12 4.01 12 3.02 12 2 C8.7 2 5.4 2 2 2 C2 2.99 2 3.98 2 5 C1.34 5 0.68 5 0 5 C0 3.35 0 1.7 0 0 Z " fill="#4E331E" transform="translate(17,6)"/>
</svg>
